<svg id="Layer_1" data-name="Layer 1" xmlns="http://www.w3.org/2000/svg" viewBox="0 0 1225.53 1225.53"><defs><style>.cls-1{opacity:0.75;}.cls-2{fill:#fff;}</style></defs><title>clouds</title><g class="cls-1"><path class="cls-2" d="M438.63,35.77l0.13,0.13-0.18,0Z"/><path class="cls-2" d="M438.76,35.9l-0.18,0,0-.17Z"/><path class="cls-2" d="M703.63,100.81a44,44,0,0,0-47.82-68.74,54.06,54.06,0,0,0-96.63,7.77,39.5,39.5,0,0,0-39.65,61.32A510.49,510.49,0,0,1,703.63,100.81Z"/><path class="cls-2" d="M100.84,521.72a44,44,0,0,0-68.76,47.8,54,54,0,0,0,7.78,96.6,39.52,39.52,0,0,0,61.35,39.63A510,510,0,0,1,100.84,521.72Z"/><path class="cls-2" d="M450.64,120a27.83,27.83,0,0,0-45.59-26.89A34.16,34.16,0,0,0,351.59,123,25,25,0,0,0,345,168.67,322.56,322.56,0,0,1,450.64,120Z"/><path class="cls-2" d="M969.32,989.3a27.83,27.83,0,0,0,52.7,4.86,34.16,34.16,0,0,0,35.57-49.87,25,25,0,0,0-13.51-44.12A322.56,322.56,0,0,1,969.32,989.3Z"/></g></svg>