<svg id="Layer_1" data-name="Layer 1" xmlns="http://www.w3.org/2000/svg" xmlns:xlink="http://www.w3.org/1999/xlink" viewBox="0 0 1758.18 1758.18"><defs><style>.cls-1{fill:none;}.cls-2{fill:#a67c52;}.cls-3{fill:#2ecc71;}.cls-4{fill:#bdc3c7;}.cls-5{fill:#2c3e50;}.cls-6{opacity:0.5;}.cls-11,.cls-7{fill:#fff;}.cls-8{fill:#7f8c8d;}.cls-9{opacity:0.75;}.cls-10{opacity:0.4;}.cls-11{opacity:0.8;}.cls-12{fill:#16a085;}.cls-13{fill:#3498db;}.cls-14{clip-path:url(#clip-path);}</style><clipPath id="clip-path"><circle class="cls-1" cx="879.09" cy="879.09" r="479.07"/></clipPath></defs><title>flat-earth</title><path class="cls-2" d="M579.46,508.16c-0.91-.26-0.63-2.81-1.13-3.62-1.69-2.73-6.21-7.85-9.24-8.91-3.31-1.16-14,.14-14,0.14L566.35,493l-15.81-7.24,17.51,5.82-4.18-22.85L571.51,490l2.36-11.3s-0.55,7.68-.33,10.22c0.08,1,.8,3.8.8,3.8s2.46,8.11,4.52,9.87c0.92,0.79,4.28.17,4.68,1.31C584,505.33,580.88,508.55,579.46,508.16Z"/><path class="cls-3" d="M570.26,461.28a7.49,7.49,0,0,0-5.83-2.08,7.52,7.52,0,0,0-11.93-1.46l-0.19.21a7.53,7.53,0,0,0-10.68,4.37,7.52,7.52,0,0,0-5.39,12.94,7.52,7.52,0,0,0,4.63,12.7,9.7,9.7,0,0,0,18.93,4.17,7.52,7.52,0,0,0,6.48-6.85,7.56,7.56,0,0,0,1.07-.92q0.22-.23.41-0.46a9.22,9.22,0,0,0,4.81-17A7.51,7.51,0,0,0,570.26,461.28Z"/><path class="cls-2" d="M1183.36,512c0.07-.95,2.63-1.18,3.33-1.83,2.34-2.19,6.46-7.64,6.91-10.82,0.48-3.47-2.92-13.71-2.92-13.71l5,10.5,4-16.93-2.24,18.32,21.57-8.62-19.39,11.7,11.54,0.07s-7.63,1-10.09,1.7c-0.93.27-3.57,1.53-3.57,1.53s-7.46,4-8.78,6.38c-0.59,1.06.68,4.23-.36,4.85C1187,515.86,1183.25,513.42,1183.36,512Z"/><path class="cls-3" d="M1227.48,493.66a7.49,7.49,0,0,0,.88-6.12,7.52,7.52,0,0,0-.93-12l-0.24-.15a7.53,7.53,0,0,0-6.4-9.61,13.14,13.14,0,0,0-25.28,4.32,9.7,9.7,0,0,0-.34,19.38,7.52,7.52,0,0,0,8,5,7.56,7.56,0,0,0,1.11.86q0.27,0.17.54,0.31a9.22,9.22,0,0,0,17.62,1.35A7.51,7.51,0,0,0,1227.48,493.66Z"/><path class="cls-2" d="M1230.09,556.34c0.2-.93,2.77-0.81,3.54-1.36,2.62-1.86,7.44-6.7,8.3-9.79,0.95-3.37-1-14-1-14l3.5,11.07,6.22-16.24-4.69,17.85,22.54-5.63-20.79,9,11.43,1.63s-7.7-.06-10.22.33c-1,.15-3.74,1-3.74,1s-7.93,3-9.56,5.14c-0.73,1,.11,4.28-1,4.75C1233.21,560.7,1229.78,557.78,1230.09,556.34Z"/><path class="cls-3" d="M1276.28,544.16a7.49,7.49,0,0,0,1.7-5.95,7.52,7.52,0,0,0,.69-12l-0.22-.18a7.53,7.53,0,0,0-5-10.38,13.14,13.14,0,0,0-25.63.87,9.7,9.7,0,0,0-2.95,19.16,7.52,7.52,0,0,0,7.25,6,7.56,7.56,0,0,0,1,1q0.24,0.2.49,0.38a9.22,9.22,0,0,0,17.27,3.71A7.51,7.51,0,0,0,1276.28,544.16Z"/><path class="cls-2" d="M549,534.42c-1.47-.28-1.37-4.35-2.26-5.56-3-4.08-10.82-11.55-15.74-12.83-5.36-1.39-22.07,2.07-22.07,2.07l17.4-5.87-25.87-9.34,28.37,6.87-9.59-35.46,14.84,32.6,2.23-18.12s0.14,12.17.83,16.15c0.26,1.51,1.75,5.88,1.75,5.88s4.94,12.45,8.42,15c1.56,1.12,6.77-.3,7.55,1.46C555.83,529.36,551.31,534.86,549,534.42Z"/><path class="cls-3" d="M528.37,461.76a11.85,11.85,0,0,0-9.46-2.51,11.9,11.9,0,0,0-19-.73l-0.28.35a11.91,11.91,0,0,0-16.26,8.29,11.9,11.9,0,0,0-6.8,21.1,11.89,11.89,0,0,0,9,19.41,15.35,15.35,0,0,0,30.38,4.07,11.89,11.89,0,0,0,9.31-11.65,12,12,0,0,0,1.56-1.59q0.32-.39.59-0.79a14.59,14.59,0,0,0,5.34-27.42A11.87,11.87,0,0,0,528.37,461.76Z"/><path class="cls-2" d="M1205.24,530.73c0.2-1.49,4.27-1.6,5.43-2.56,3.91-3.24,10.95-11.44,12-16.41,1.1-5.43-3.27-21.92-3.27-21.92l6.81,17.06,7.91-26.34-5.31,28.7,34.89-11.51-31.75,16.59,18.21,1.24s-12.14.8-16.09,1.71c-1.5.34-5.78,2.07-5.78,2.07s-12.16,5.61-14.48,9.23c-1,1.62.67,6.74-1,7.61C1210.67,537.24,1204.93,533,1205.24,530.73Z"/><path class="cls-3" d="M1276.67,506.13a11.85,11.85,0,0,0,2-9.58,11.9,11.9,0,0,0-.31-19l-0.37-.26a11.91,11.91,0,0,0-9.17-15.78,11.9,11.9,0,0,0-21.44-5.64,11.89,11.89,0,0,0-18.89,10,15.35,15.35,0,0,0-2.41,30.56,11.89,11.89,0,0,0,12.14,8.66,12,12,0,0,0,1.67,1.47q0.4,0.29.82,0.54a14.59,14.59,0,0,0,27.67,3.84A11.87,11.87,0,0,0,1276.67,506.13Z"/><rect class="cls-4" x="599.19" y="122.98" width="28" height="26" transform="translate(-14.25 164.51) rotate(-15.11)"/><rect class="cls-4" x="629.12" y="114.9" width="28" height="26" transform="translate(-11.11 172.03) rotate(-15.11)"/><rect class="cls-4" x="659.05" y="106.82" width="28" height="26" transform="translate(-7.97 179.55) rotate(-15.11)"/><rect class="cls-4" x="607.01" y="151.94" width="28" height="26" transform="translate(-21.53 167.55) rotate(-15.11)"/><rect class="cls-4" x="636.94" y="143.86" width="28" height="26" transform="translate(-18.39 175.07) rotate(-15.11)"/><rect class="cls-4" x="666.87" y="135.78" width="28" height="26" transform="translate(-15.25 182.59) rotate(-15.11)"/><rect class="cls-4" x="614.83" y="180.9" width="28" height="26" transform="translate(-28.8 170.59) rotate(-15.11)"/><rect class="cls-4" x="644.76" y="172.82" width="28" height="26" transform="translate(-25.66 178.11) rotate(-15.11)"/><rect class="cls-4" x="674.69" y="164.75" width="28" height="26" transform="translate(-22.52 185.63) rotate(-15.11)"/><rect class="cls-4" x="622.78" y="209.85" width="28" height="27" transform="translate(-36.2 173.68) rotate(-15.11)"/><rect class="cls-4" x="652.71" y="201.77" width="28" height="27" transform="translate(-33.06 181.2) rotate(-15.11)"/><rect class="cls-4" x="682.64" y="193.69" width="28" height="27" transform="translate(-29.92 188.72) rotate(-15.11)"/><rect class="cls-4" x="630.73" y="239.8" width="28" height="26" transform="translate(-43.6 176.77) rotate(-15.11)"/><rect class="cls-4" x="660.66" y="231.72" width="28" height="26" transform="translate(-40.46 184.29) rotate(-15.11)"/><rect class="cls-4" x="690.58" y="223.64" width="28" height="26" transform="translate(-37.32 191.81) rotate(-15.11)"/><rect class="cls-4" x="638.55" y="268.76" width="28" height="26" transform="translate(-50.88 179.81) rotate(-15.11)"/><rect class="cls-4" x="668.47" y="260.68" width="28" height="26" transform="translate(-47.74 187.33) rotate(-15.11)"/><rect class="cls-4" x="698.4" y="252.6" width="28" height="26" transform="translate(-44.6 194.85) rotate(-15.11)"/><rect class="cls-4" x="646.36" y="297.72" width="28" height="26" transform="translate(-58.16 182.85) rotate(-15.11)"/><rect class="cls-4" x="676.29" y="289.64" width="28" height="26" transform="translate(-55.02 190.37) rotate(-15.11)"/><rect class="cls-4" x="706.22" y="281.56" width="28" height="26" transform="translate(-51.88 197.89) rotate(-15.11)"/><rect class="cls-4" x="654.31" y="326.67" width="28" height="27" transform="translate(-65.56 185.93) rotate(-15.11)"/><rect class="cls-4" x="684.24" y="318.59" width="28" height="27" transform="translate(-62.42 193.46) rotate(-15.11)"/><rect class="cls-4" x="714.17" y="310.51" width="28" height="27" transform="translate(-59.28 200.98) rotate(-15.11)"/><rect class="cls-4" x="662.26" y="356.61" width="28" height="26" transform="translate(-72.96 189.02) rotate(-15.11)"/><rect class="cls-4" x="692.19" y="348.54" width="28" height="26" transform="translate(-69.82 196.54) rotate(-15.11)"/><rect class="cls-4" x="722.12" y="340.46" width="28" height="26" transform="translate(-66.68 204.07) rotate(-15.11)"/><rect class="cls-4" x="670.08" y="385.58" width="28" height="26" transform="translate(-80.24 192.06) rotate(-15.11)"/><rect class="cls-4" x="700.01" y="377.5" width="28" height="26" transform="translate(-77.1 199.58) rotate(-15.11)"/><rect class="cls-4" x="729.94" y="369.42" width="28" height="26" transform="translate(-73.96 207.1) rotate(-15.11)"/><rect class="cls-4" x="677.9" y="414.54" width="28" height="26" transform="translate(-87.52 195.1) rotate(-15.11)"/><rect class="cls-4" x="707.83" y="406.46" width="28" height="26" transform="translate(-84.38 202.62) rotate(-15.11)"/><rect class="cls-4" x="737.76" y="398.38" width="28" height="26" transform="translate(-81.24 210.14) rotate(-15.11)"/><rect class="cls-4" x="685.85" y="443.49" width="28" height="27" transform="translate(-94.92 198.19) rotate(-15.11)"/><rect class="cls-4" x="715.78" y="435.41" width="28" height="27" transform="translate(-91.78 205.71) rotate(-15.11)"/><rect class="cls-4" x="745.71" y="427.33" width="28" height="27" transform="translate(-88.64 213.23) rotate(-15.11)"/><rect class="cls-4" x="693.8" y="473.43" width="28" height="26" transform="translate(-102.31 201.28) rotate(-15.11)"/><rect class="cls-4" x="723.73" y="465.35" width="28" height="26" transform="translate(-99.17 208.8) rotate(-15.11)"/><rect class="cls-4" x="753.66" y="457.27" width="28" height="26" transform="translate(-96.03 216.32) rotate(-15.11)"/><rect class="cls-4" x="701.62" y="502.4" width="28" height="26" transform="translate(-109.59 204.32) rotate(-15.11)"/><rect class="cls-4" x="731.55" y="494.32" width="28" height="26" transform="translate(-106.45 211.84) rotate(-15.11)"/><rect class="cls-4" x="761.47" y="486.24" width="28" height="26" transform="translate(-103.31 219.36) rotate(-15.11)"/><rect class="cls-4" x="709.44" y="531.36" width="28" height="26" transform="translate(-116.87 207.36) rotate(-15.11)"/><rect class="cls-4" x="739.36" y="523.28" width="28" height="26" transform="translate(-113.73 214.88) rotate(-15.11)"/><rect class="cls-4" x="769.29" y="515.2" width="28" height="26" transform="translate(-110.59 222.4) rotate(-15.11)"/><rect class="cls-4" x="717.38" y="560.31" width="28" height="27" transform="translate(-124.27 210.45) rotate(-15.11)"/><rect class="cls-4" x="747.31" y="552.23" width="28" height="27" transform="translate(-121.13 217.97) rotate(-15.11)"/><rect class="cls-4" x="777.24" y="544.15" width="28" height="27" transform="translate(-117.99 225.49) rotate(-15.11)"/><polygon class="cls-5" points="630.82 314.46 719.51 481.49 637.95 524.8 549.26 357.76 569.94 298.25 630.82 314.46"/><g class="cls-6"><circle class="cls-7" cx="582.59" cy="362.89" r="11.31" transform="translate(-102.15 315.59) rotate(-27.97)"/><circle class="cls-7" cx="616.4" cy="344.93" r="11.31" transform="translate(-89.78 329.35) rotate(-27.97)"/><circle class="cls-7" cx="604.75" cy="404.63" r="11.31" transform="translate(-119.13 330.85) rotate(-27.97)"/><circle class="cls-7" cx="638.56" cy="386.67" r="11.31" transform="translate(-106.76 344.62) rotate(-27.97)"/><circle class="cls-7" cx="626.91" cy="446.37" r="11.31" transform="translate(-136.12 346.12) rotate(-27.97)"/><circle class="cls-7" cx="660.73" cy="428.41" r="11.31" transform="translate(-123.75 359.88) rotate(-27.97)"/><circle class="cls-7" cx="649.07" cy="488.1" r="11.31" transform="translate(-153.1 361.39) rotate(-27.97)"/><circle class="cls-7" cx="682.89" cy="470.15" r="11.31" transform="translate(-140.73 375.15) rotate(-27.97)"/></g><polygon class="cls-8" points="794.04 164.06 850.96 483.03 767.28 497.96 710.37 179 724.15 176.54 720.46 155.86 745.07 151.47 737.87 111.11 744.76 109.88 751.96 150.24 776.57 145.85 780.26 166.52 794.04 164.06"/><g class="cls-9"><g class="cls-9"><rect class="cls-7" x="769.83" y="192.88" width="21.35" height="9.01" transform="translate(-22.54 140.17) rotate(-10.12)"/><rect class="cls-7" x="724.9" y="200.9" width="21.35" height="9.01" transform="translate(-24.64 132.4) rotate(-10.12)"/></g><g class="cls-9"><rect class="cls-7" x="773.9" y="215.7" width="21.35" height="9.01" transform="translate(-26.48 141.24) rotate(-10.12)"/><rect class="cls-7" x="728.97" y="223.71" width="21.35" height="9.01" transform="translate(-28.59 133.47) rotate(-10.12)"/></g><g class="cls-9"><rect class="cls-7" x="777.98" y="238.51" width="21.35" height="9.01" transform="translate(-30.43 142.31) rotate(-10.12)"/><rect class="cls-7" x="733.04" y="246.53" width="21.35" height="9.01" transform="translate(-32.53 134.54) rotate(-10.12)"/></g><g class="cls-9"><rect class="cls-7" x="782.05" y="261.33" width="21.35" height="9.01" transform="translate(-34.37 143.38) rotate(-10.12)"/><rect class="cls-7" x="737.11" y="269.35" width="21.35" height="9.01" transform="translate(-36.48 135.61) rotate(-10.12)"/></g><g class="cls-9"><rect class="cls-7" x="786.12" y="284.15" width="21.35" height="9.01" transform="translate(-38.31 144.45) rotate(-10.12)"/><rect class="cls-7" x="741.18" y="292.17" width="21.35" height="9.01" transform="translate(-40.42 136.68) rotate(-10.12)"/></g><g class="cls-9"><rect class="cls-7" x="790.19" y="306.97" width="21.35" height="9.01" transform="translate(-42.26 145.52) rotate(-10.12)"/><rect class="cls-7" x="745.25" y="314.99" width="21.35" height="9.01" transform="translate(-44.37 137.75) rotate(-10.12)"/></g><g class="cls-9"><rect class="cls-7" x="794.26" y="329.79" width="21.35" height="9.01" transform="translate(-46.2 146.59) rotate(-10.12)"/><rect class="cls-7" x="749.33" y="337.81" width="21.35" height="9.01" transform="translate(-48.31 138.82) rotate(-10.12)"/></g><g class="cls-9"><rect class="cls-7" x="798.33" y="352.61" width="21.35" height="9.01" transform="translate(-50.15 147.66) rotate(-10.12)"/><rect class="cls-7" x="753.4" y="360.62" width="21.35" height="9.01" transform="translate(-52.26 139.89) rotate(-10.12)"/></g><g class="cls-9"><rect class="cls-7" x="802.4" y="375.42" width="21.35" height="9.01" transform="translate(-54.09 148.73) rotate(-10.12)"/><rect class="cls-7" x="757.47" y="383.44" width="21.35" height="9.01" transform="translate(-56.2 140.96) rotate(-10.12)"/></g><g class="cls-9"><rect class="cls-7" x="806.48" y="398.24" width="21.35" height="9.01" transform="translate(-58.04 149.8) rotate(-10.12)"/><rect class="cls-7" x="761.54" y="406.26" width="21.35" height="9.01" transform="translate(-60.15 142.03) rotate(-10.12)"/></g><g class="cls-9"><rect class="cls-7" x="810.55" y="421.06" width="21.35" height="9.01" transform="translate(-61.98 150.87) rotate(-10.12)"/><rect class="cls-7" x="765.61" y="429.08" width="21.35" height="9.01" transform="matrix(0.98, -0.18, 0.18, 0.98, -64.09, 143.1)"/></g></g><polygon class="cls-5" points="935.6 40.23 935.6 543.23 821.6 543.23 821.6 40.23 838.6 40.23 838.6 25.23 852.6 25.23 852.6 14.23 866.6 14.23 866.6 5.23 890.6 5.23 890.6 14.23 904.6 14.23 904.6 25.23 918.6 25.23 918.6 40.23 935.6 40.23"/><g class="cls-10"><rect class="cls-7" x="840.86" y="58.68" width="77.5" height="9"/><rect class="cls-7" x="840.86" y="107.49" width="77.5" height="9"/><rect class="cls-7" x="840.86" y="156.31" width="77.5" height="9"/><rect class="cls-7" x="840.86" y="205.12" width="77.5" height="9"/><rect class="cls-7" x="840.86" y="253.94" width="77.5" height="9"/><rect class="cls-7" x="840.86" y="302.75" width="77.5" height="9"/><rect class="cls-7" x="840.86" y="400.38" width="77.5" height="9"/><rect class="cls-7" x="840.86" y="449.2" width="77.5" height="9"/><rect class="cls-7" x="840.86" y="351.57" width="77.5" height="9"/></g><rect class="cls-5" x="993.53" y="200.44" width="108.9" height="370.9" transform="translate(182.21 -319.53) rotate(18.96)"/><g class="cls-6"><rect class="cls-7" x="1054.8" y="223.6" width="94.67" height="9.33" transform="translate(133.94 -345.67) rotate(18.96)"/><rect class="cls-7" x="1048.03" y="243.31" width="94.67" height="9.33" transform="translate(139.98 -342.41) rotate(18.96)"/><rect class="cls-7" x="1041.26" y="263.01" width="94.67" height="9.33" transform="translate(146.01 -339.14) rotate(18.96)"/><rect class="cls-7" x="1034.49" y="282.71" width="94.67" height="9.33" transform="translate(152.04 -335.87) rotate(18.96)"/><rect class="cls-7" x="1027.72" y="302.42" width="94.67" height="9.33" transform="translate(158.08 -332.6) rotate(18.96)"/><rect class="cls-7" x="1020.96" y="322.12" width="94.67" height="9.33" transform="translate(164.11 -329.34) rotate(18.96)"/><rect class="cls-7" x="1014.19" y="341.82" width="94.67" height="9.33" transform="translate(170.15 -326.07) rotate(18.96)"/><rect class="cls-7" x="1007.42" y="361.53" width="94.67" height="9.33" transform="translate(176.18 -322.8) rotate(18.96)"/><rect class="cls-7" x="1000.65" y="381.23" width="94.67" height="9.33" transform="translate(182.21 -319.53) rotate(18.96)"/><rect class="cls-7" x="993.88" y="400.93" width="94.67" height="9.33" transform="translate(188.25 -316.27) rotate(18.96)"/><rect class="cls-7" x="987.11" y="420.64" width="94.67" height="9.33" transform="translate(194.28 -313) rotate(18.96)"/><rect class="cls-7" x="980.35" y="440.34" width="94.67" height="9.33" transform="translate(200.32 -309.73) rotate(18.96)"/><rect class="cls-7" x="973.58" y="460.04" width="94.67" height="9.33" transform="translate(206.35 -306.46) rotate(18.96)"/><rect class="cls-7" x="966.81" y="479.75" width="94.67" height="9.33" transform="translate(212.38 -303.19) rotate(18.96)"/><rect class="cls-7" x="960.04" y="499.45" width="94.67" height="9.33" transform="translate(218.42 -299.93) rotate(18.96)"/></g><polygon class="cls-8" points="1219.39 360.52 1134.31 511.16 1061.17 469.85 1146.25 319.22 1164.53 329.54 1177.5 306.58 1177.75 306.49 1213.65 285.33 1214.05 326.99 1214.07 327.23 1201.1 350.2 1219.39 360.52"/><g class="cls-6"><rect class="cls-7" x="1142.21" y="349.34" width="69" height="2.67" transform="translate(324.57 -533.33) rotate(29.46)"/><rect class="cls-7" x="1138.18" y="356.49" width="69" height="2.67" transform="translate(327.56 -530.42) rotate(29.46)"/><rect class="cls-7" x="1134.14" y="363.64" width="69" height="2.67" transform="translate(330.55 -527.51) rotate(29.46)"/><rect class="cls-7" x="1130.1" y="370.79" width="69" height="2.67" transform="translate(333.55 -524.6) rotate(29.46)"/><rect class="cls-7" x="1126.06" y="377.94" width="69" height="2.67" transform="translate(336.54 -521.69) rotate(29.46)"/><rect class="cls-7" x="1122.03" y="385.09" width="69" height="2.67" transform="translate(339.53 -518.78) rotate(29.46)"/><rect class="cls-7" x="1117.99" y="392.24" width="69" height="2.67" transform="translate(342.53 -515.87) rotate(29.46)"/><rect class="cls-7" x="1113.95" y="399.39" width="69" height="2.67" transform="translate(345.52 -512.96) rotate(29.46)"/><rect class="cls-7" x="1109.91" y="406.54" width="69" height="2.67" transform="translate(348.51 -510.05) rotate(29.46)"/><rect class="cls-7" x="1105.87" y="413.68" width="69" height="2.67" transform="translate(351.51 -507.14) rotate(29.46)"/><rect class="cls-7" x="1101.84" y="420.83" width="69" height="2.67" transform="matrix(0.87, 0.49, -0.49, 0.87, 354.5, -504.23)"/><rect class="cls-7" x="1097.8" y="427.98" width="69" height="2.67" transform="translate(357.5 -501.32) rotate(29.46)"/><rect class="cls-7" x="1093.76" y="435.13" width="69" height="2.67" transform="translate(360.49 -498.41) rotate(29.46)"/><rect class="cls-7" x="1089.72" y="442.28" width="69" height="2.67" transform="translate(363.48 -495.51) rotate(29.46)"/><rect class="cls-7" x="1085.69" y="449.43" width="69" height="2.67" transform="translate(366.48 -492.6) rotate(29.46)"/><rect class="cls-7" x="1081.65" y="456.58" width="69" height="2.67" transform="translate(369.47 -489.69) rotate(29.46)"/><rect class="cls-7" x="1077.61" y="463.73" width="69" height="2.67" transform="translate(372.46 -486.78) rotate(29.46)"/><rect class="cls-7" x="1073.57" y="470.88" width="69" height="2.67" transform="translate(375.46 -483.87) rotate(29.46)"/><rect class="cls-7" x="1069.54" y="478.03" width="69" height="2.67" transform="translate(378.45 -480.96) rotate(29.46)"/><rect class="cls-7" x="1175.84" y="313.53" width="9.33" height="20.18" transform="translate(311.75 -538.7) rotate(29.46)"/><rect class="cls-7" x="1193.26" y="323.37" width="9.33" height="20.18" transform="translate(318.84 -545.99) rotate(29.46)"/></g><polygon class="cls-4" points="1058.08 110.65 992.64 516.64 886.02 499.46 951.45 93.47 977.19 72.52 1040.6 82.75 1058.08 110.65"/><g class="cls-6"><rect class="cls-7" x="950.15" y="132.47" width="30" height="16" transform="translate(672.89 1070.97) rotate(-80.84)"/><rect class="cls-7" x="971.87" y="135.97" width="30" height="16" transform="translate(687.7 1095.36) rotate(-80.84)"/><rect class="cls-7" x="993.59" y="139.47" width="30" height="16" transform="translate(702.5 1119.74) rotate(-80.84)"/><rect class="cls-7" x="1015.31" y="142.98" width="30" height="16" transform="translate(717.31 1144.13) rotate(-80.84)"/></g><g class="cls-6"><rect class="cls-7" x="942.25" y="178.38" width="31" height="16" transform="translate(621.34 1102.27) rotate(-80.84)"/><rect class="cls-7" x="963.97" y="181.88" width="31" height="16" transform="translate(636.15 1126.65) rotate(-80.84)"/><rect class="cls-7" x="985.69" y="185.38" width="31" height="16" transform="translate(650.96 1151.04) rotate(-80.84)"/><rect class="cls-7" x="1007.41" y="188.88" width="31" height="16" transform="matrix(0.16, -0.99, 0.99, 0.16, 665.77, 1175.43)"/></g><g class="cls-6"><rect class="cls-7" x="934.77" y="224.78" width="31" height="16" transform="translate(569.24 1133.9) rotate(-80.84)"/><rect class="cls-7" x="956.49" y="228.28" width="31" height="16" transform="translate(584.05 1158.29) rotate(-80.84)"/><rect class="cls-7" x="978.21" y="231.78" width="31" height="16" transform="translate(598.86 1182.68) rotate(-80.84)"/><rect class="cls-7" x="999.93" y="235.28" width="31" height="16" transform="translate(613.67 1207.06) rotate(-80.84)"/></g><g class="cls-6"><rect class="cls-7" x="927.87" y="270.69" width="30" height="16" transform="translate(517.7 1165.2) rotate(-80.84)"/><rect class="cls-7" x="949.59" y="274.19" width="30" height="16" transform="translate(532.51 1189.59) rotate(-80.84)"/><rect class="cls-7" x="971.31" y="277.69" width="30" height="16" transform="translate(547.32 1213.97) rotate(-80.84)"/><rect class="cls-7" x="993.03" y="281.19" width="30" height="16" transform="matrix(0.16, -0.99, 0.99, 0.16, 562.12, 1238.36)"/></g><g class="cls-6"><rect class="cls-7" x="920.82" y="317.16" width="30" height="16" transform="translate(465.89 1197.32) rotate(-80.84)"/><rect class="cls-7" x="942.54" y="320.66" width="30" height="16" transform="translate(480.7 1221.7) rotate(-80.84)"/><rect class="cls-7" x="964.26" y="324.16" width="30" height="16" transform="translate(495.51 1246.09) rotate(-80.84)"/><rect class="cls-7" x="985.98" y="327.66" width="30" height="16" transform="translate(510.32 1270.48) rotate(-80.84)"/></g><g class="cls-6"><rect class="cls-7" x="912.92" y="363.07" width="31" height="16" transform="translate(414.35 1228.61) rotate(-80.84)"/><rect class="cls-7" x="934.64" y="366.57" width="31" height="16" transform="translate(429.16 1253) rotate(-80.84)"/><rect class="cls-7" x="956.36" y="370.07" width="31" height="16" transform="translate(443.97 1277.39) rotate(-80.84)"/><rect class="cls-7" x="978.08" y="373.57" width="31" height="16" transform="translate(458.77 1301.77) rotate(-80.84)"/></g><g class="cls-6"><rect class="cls-7" x="905.44" y="409.47" width="31" height="16" transform="translate(362.25 1260.25) rotate(-80.84)"/><rect class="cls-7" x="927.16" y="412.97" width="31" height="16" transform="matrix(0.16, -0.99, 0.99, 0.16, 377.06, 1284.64)"/><rect class="cls-7" x="948.88" y="416.47" width="31" height="16" transform="translate(391.87 1309.02) rotate(-80.84)"/><rect class="cls-7" x="970.6" y="419.97" width="31" height="16" transform="matrix(0.16, -0.99, 0.99, 0.16, 406.67, 1333.41)"/></g><polygon class="cls-5" points="879.61 1612.74 713.58 1325.17 1045.64 1325.17 879.61 1612.74"/><polygon class="cls-11" points="879.61 1612.74 900.51 1576.38 892.74 1583.93 899.74 1558.62 885.92 1583.37 885.49 1569.87 879.42 1587.24 876.61 1580.93 875.42 1589.24 866.4 1573.33 871.24 1592.62 864.08 1585.83 879.61 1612.74"/><polygon class="cls-8" points="1003.75 1499.89 861.3 1337.52 1073.15 1295.34 1003.75 1499.89"/><polygon class="cls-8" points="719.74 1517.5 669.17 1279.62 900.47 1354.77 719.74 1517.5"/><path class="cls-12" d="M919.6,1355.71c-11.1-2.52-25.54-4-41.33-4a209.91,209.91,0,0,0-34.41,2.66l-1,.18a113.12,113.12,0,0,0-11.26,2.55c-10.73-5.64-26.89-11.07-45.35-14.76a205,205,0,0,0-36.78-4.18l-74.52-32.29,9.55,48.13,25.83-4.83,0.8,4.56-3.22-1.22,1,9.62-2.92-1.11,0.89,12.94-1.94-.74,3,21.64,16.62-14.17-1.94-.74,9.27-9.08-2.92-1.11,7.13-6.53-3.22-1.23,1.84-1.46a139.8,139.8,0,0,0,22.78,9l0.32,1.65-2.53-.71,1.71,10.83-1.69-.48,4.14,18,12.93-13.17-1.69-.48,7.12-8.33-2.53-.72,1.48-1.62c1,0.22,2,.42,3,0.62,4.22,0.84,8.37,1.56,12.39,2.14l0.34,1.28-2.57-.54,2.46,10.68-1.71-.36L796,1406l12-14-1.72-.35,6.52-8.82-2.58-.53,2.4-3c3,0.12,5.84.14,8.52,0.07l4.53,9.24-4.74-.49,4.79,11.92-4.29-.45,5.87,16.18-2.86-.3,11.84,26.56,17.08-23.53-2.87-.3,9.1-14.61-4.29-.45,7.16-10.68-4.75-.49,5.64-7.2c4.8,0.31,9.82.47,15,.47q3.56,0,7-.1l4.1,6.25-4.77.1,6.24,11.23-4.31.09,7.85,15.32-2.88.06,15.06,24.87,14-25.48-2.88.06,2.31-5,8.35,11.66,9.68-21.34-2.31.23,4.82-13-3.46.34,3.92-9.59-3.82.38,0.76-1.53,3.92-7.87-0.38-.39,0.65-.15-0.27.54,7.5,7.55,2.75,2.78-4.33,1,7.76,9.07-3.91.88,10,12.49-2.6.58,18.28,19.85,8.05-25.76-2.61.59,3.67-15.56-3.91.88,1.25-4.59-1-1.1,1.39-.39-0.4,1.49,8,9-2.17.62,16.37,15.87,5.34-21.23-0.7-.62-1.25.35,0.23-1.27-0.9-.8,1.1-.36,0.19-1,0.72,0.74-0.91.3-0.2,1.16,1,0.92,0.92-.26-0.22.88,13.3,11.89,4.36-20.9-2,.66,1.7-12.53-3,1,1.23-7.2a38.75,38.75,0,0,0,6.86-5l16.4,9.66,14.73-43.43-61.66,18.63Zm61.68,19.83,0.26-.72-0.13-.13,0.18,0,0,0.17,0.52,0.54Z"/><g id="_Group_" data-name="&lt;Group&gt;"><polygon class="cls-3" points="801.63 1364.18 817.22 1366.81 819.7 1352.09 823.23 1352.68 820.74 1367.41 836.32 1370.04 828.72 1378.21 832.06 1378.77 826.57 1385.64 829.6 1386.15 822.58 1395.59 824.6 1395.93 811.57 1411 804.22 1392.49 806.24 1392.83 802.7 1381.61 805.73 1382.12 802.79 1373.83 806.14 1374.4 801.63 1364.18"/></g><g id="_Group_2" data-name="&lt;Group&gt;"><polygon class="cls-3" points="849.31 1379.83 876.53 1379.69 876.39 1352.67 882.55 1352.64 882.69 1379.66 909.91 1379.52 899.42 1396.45 905.26 1396.42 897.97 1410.36 903.26 1410.34 894.14 1429.34 897.66 1429.32 880.02 1460.24 862.07 1429.5 865.59 1429.48 856.28 1410.58 861.57 1410.55 854.13 1396.68 859.98 1396.65 849.31 1379.83"/></g><g id="_Group_3" data-name="&lt;Group&gt;"><polygon class="cls-3" points="1043.06 1345.86 1061.62 1337.89 1053.71 1319.47 1057.91 1317.67 1065.82 1336.09 1084.38 1328.13 1082.1 1342.73 1086.09 1341.02 1085.14 1352.65 1088.74 1351.11 1088.01 1366.73 1090.41 1365.7 1087.29 1391.92 1066.14 1376.11 1068.54 1375.08 1056.71 1364.85 1060.31 1363.31 1051.23 1355.98 1055.21 1354.27 1043.06 1345.86"/></g><g id="_Group_4" data-name="&lt;Group&gt;"><polygon class="cls-3" points="1080.58 1323.44 1092.32 1317.1 1086.04 1305.45 1088.69 1304.02 1094.98 1315.67 1106.72 1309.34 1106.08 1319.08 1108.6 1317.72 1108.66 1325.43 1110.94 1324.2 1111.38 1334.52 1112.9 1333.7 1112.39 1351.13 1097.54 1341.98 1099.06 1341.16 1090.68 1335.13 1092.96 1333.9 1086.55 1329.61 1089.07 1328.25 1080.58 1323.44"/></g><g id="_Group_5" data-name="&lt;Group&gt;"><polygon class="cls-3" points="762.17 1357.63 780.5 1361.11 783.96 1342.9 788.11 1343.69 784.65 1361.89 802.99 1365.37 793.71 1375.38 797.64 1376.13 790.91 1384.56 794.47 1385.24 785.84 1396.83 788.21 1397.28 772.28 1415.77 764.23 1392.73 766.61 1393.18 762.82 1379.23 766.38 1379.91 763.2 1369.6 767.14 1370.34 762.17 1357.63"/></g><g id="_Group_6" data-name="&lt;Group&gt;"><polygon class="cls-3" points="682.75 1330.64 700.23 1337.2 706.74 1319.84 710.69 1321.33 704.18 1338.68 721.66 1345.23 710.8 1353.52 714.56 1354.92 706.48 1362.08 709.88 1363.35 699.4 1373.3 701.66 1374.15 682.81 1389.66 678.8 1365.58 681.07 1366.43 679.71 1352.04 683.11 1353.31 681.73 1342.61 685.48 1344.02 682.75 1330.64"/></g><g id="_Group_7" data-name="&lt;Group&gt;"><polygon class="cls-3" points="656.47 1312.3 668.99 1318.27 674.92 1305.84 677.75 1307.19 671.82 1319.62 684.34 1325.59 675.77 1331.03 678.46 1332.31 672.02 1337.09 674.46 1338.25 666.06 1344.94 667.68 1345.72 652.73 1355.99 651.31 1337.91 652.93 1338.68 652.85 1327.94 655.28 1329.11 654.95 1321.1 657.64 1322.38 656.47 1312.3"/></g><g id="_Group_8" data-name="&lt;Group&gt;"><polygon class="cls-3" points="635.29 1297.67 645.27 1303.25 650.81 1293.33 653.07 1294.6 647.53 1304.51 657.52 1310.08 650.18 1314.1 652.33 1315.3 646.78 1318.89 648.72 1319.98 641.46 1325.04 642.75 1325.77 629.91 1333.43 629.69 1318.48 630.98 1319.2 631.49 1310.36 633.42 1311.44 633.57 1304.83 635.72 1306.03 635.29 1297.67"/></g><g id="_Group_9" data-name="&lt;Group&gt;"><polygon class="cls-3" points="733.74 1344.58 747.4 1348.26 751.05 1334.69 754.14 1335.53 750.49 1349.09 764.14 1352.77 756.55 1359.8 759.49 1360.59 753.91 1366.57 756.57 1367.29 749.38 1375.55 751.15 1376.03 738.05 1389.09 733.29 1371.22 735.05 1371.69 732.99 1360.94 735.65 1361.65 733.83 1353.68 736.76 1354.47 733.74 1344.58"/></g><g id="_Group_10" data-name="&lt;Group&gt;"><polygon class="cls-3" points="915.62 1373.26 936.66 1370.47 933.9 1349.57 938.66 1348.94 941.42 1369.84 962.47 1367.05 956.02 1381.18 960.54 1380.58 956.27 1392.09 960.36 1391.55 955.18 1407.15 957.9 1406.79 947.29 1432.45 930.38 1410.43 933.1 1410.07 924.03 1396.36 928.12 1395.82 921.01 1385.81 925.52 1385.22 915.62 1373.26"/></g><g id="_Group_11" data-name="&lt;Group&gt;"><polygon class="cls-3" points="1017.7 1348.62 1032.01 1343.45 1026.88 1329.24 1030.11 1328.07 1035.25 1342.28 1049.56 1337.11 1047.2 1347.98 1050.27 1346.87 1049.05 1355.58 1051.83 1354.58 1050.58 1366.3 1052.43 1365.63 1048.94 1385.21 1033.72 1372.39 1035.57 1371.72 1027.13 1363.51 1029.91 1362.5 1023.39 1356.59 1026.47 1355.48 1017.7 1348.62"/></g><g id="_Group_12" data-name="&lt;Group&gt;"><polygon class="cls-3" points="986.09 1355.67 999.8 1351.81 995.97 1338.19 999.07 1337.32 1002.9 1350.94 1016.62 1347.08 1013.68 1357.08 1016.63 1356.25 1014.89 1364.3 1017.55 1363.55 1015.6 1374.41 1017.38 1373.91 1012.78 1391.96 999.44 1378.96 1001.22 1378.46 993.88 1370.21 996.55 1369.46 990.87 1363.5 993.81 1362.67 986.09 1355.67"/></g><g id="_Group_13" data-name="&lt;Group&gt;"><polygon class="cls-3" points="958.66 1357.67 969.43 1355.32 967.1 1344.63 969.54 1344.1 971.87 1354.79 982.64 1352.45 979.9 1360.04 982.22 1359.53 980.5 1365.67 982.59 1365.21 980.58 1373.51 981.97 1373.2 977.59 1386.94 967.89 1376.27 969.28 1375.97 964 1369.26 966.1 1368.81 961.99 1363.93 964.3 1363.43 958.66 1357.67"/></g><circle class="cls-13" cx="879.09" cy="879.09" r="479.07"/><g class="cls-14"><path class="cls-3" d="M572.75,1247s50.64-149.36,96-161.66c23.21-6.29,61,40.12,84.17,46.57s75.27-30.59,94.67-16.43c24.75,18.07-24.13,103.71,0,122.6,8.87,6.94,28.87-21.75,40.07-20.61,24.25,2.48,39.14,63.19,58.5,78,11.16,8.54,41.57,7.08,55.5,9,10,1.38,29.18,13,39,10.5,20.82-5.24,53.54-41,60-61.5,4-12.74-9-43.5,0-53.39,13.61-15,60.92-2.21,81.06,0,13.16,1.45,44.77-10.41,52.94,0,44.42,56.59-78.44,276.88-78.44,276.88l-523.47-58.5Z"/><path class="cls-3" d="M492.74,595.79S594.29,823.4,665.67,823c38.32-.21,58.93-102.79,91.5-123,38.61-23.95,181.49,9.39,181.49,9.39s-20.84-93.32-43.5-113.61C870.1,573.35,776.67,532,776.67,532s112.15-51.14,151.49-46.5c33.72,4,84.13,60.46,117,69,28.28,7.35,87.53-26.48,115.49-18,36.8,11.16,62.35,106.09,99,117.74,8.89,2.83,34-15.45,34-15.45L1123.15,121,536.68,416.52Z"/></g><polygon class="cls-4" points="1127.15 429.93 1127.28 429.93 1127.15 430.14 1127.15 429.93"/><polygon class="cls-4" points="1173.03 429.93 1173.03 430.14 1172.9 429.93 1173.03 429.93"/><path class="cls-12" d="M806.81,272.72l0,0.28-1-.1Z"/><path class="cls-12" d="M668.1,252.42l0.13,0.13-0.18,0Z"/><path class="cls-12" d="M668.23,252.55l-0.18,0,0-.17Z"/></svg>